<?xml version="1.0" encoding="utf-8" standalone="no"?>
<!DOCTYPE svg PUBLIC "-//W3C//DTD SVG 1.1//EN"
  "http://www.w3.org/Graphics/SVG/1.1/DTD/svg11.dtd">
<svg xmlns:xlink="http://www.w3.org/1999/xlink" width="432pt" height="432pt" viewBox="0 0 432 432" xmlns="http://www.w3.org/2000/svg" version="1.1">
 <metadata>
  <rdf:RDF xmlns:dc="http://purl.org/dc/elements/1.1/" xmlns:cc="http://creativecommons.org/ns#" xmlns:rdf="http://www.w3.org/1999/02/22-rdf-syntax-ns#">
   <cc:Work>
    <dc:type rdf:resource="http://purl.org/dc/dcmitype/StillImage"/>
    <dc:date>2023-12-13T20:50:02.442666</dc:date>
    <dc:format>image/svg+xml</dc:format>
    <dc:creator>
     <cc:Agent>
      <dc:title>Matplotlib v3.8.0, https://matplotlib.org/</dc:title>
     </cc:Agent>
    </dc:creator>
   </cc:Work>
  </rdf:RDF>
 </metadata>
 <defs>
  <style type="text/css">*{stroke-linejoin: round; stroke-linecap: butt}</style>
 </defs>
 <g id="figure_1">
  <g id="patch_1">
   <path d="M 0 432 
L 432 432 
L 432 0 
L 0 0 
z
" style="fill: #ffffff"/>
  </g>
  <g id="axes_1">
   <g id="patch_2">
    <path d="M 54 384.48 
L 388.8 384.48 
L 388.8 51.84 
L 54 51.84 
z
" style="fill: #ffffff"/>
   </g>
   <g id="matplotlib.axis_1">
    <g id="xtick_1">
     <g id="line2d_1">
      <defs>
       <path id="ma8de784d09" d="M 0 0 
L 0 3.5 
" style="stroke: #000000; stroke-width: 0.8"/>
      </defs>
      <g>
       <use xlink:href="#ma8de784d09" x="69.218182" y="384.48" style="stroke: #000000; stroke-width: 0.8"/>
      </g>
     </g>
     <g id="text_1">
      <!-- 0.0 -->
      <g transform="translate(61.266619 399.078438) scale(0.1 -0.1)">
       <defs>
        <path id="DejaVuSans-30" d="M 2034 4250 
Q 1547 4250 1301 3770 
Q 1056 3291 1056 2328 
Q 1056 1369 1301 889 
Q 1547 409 2034 409 
Q 2525 409 2770 889 
Q 3016 1369 3016 2328 
Q 3016 3291 2770 3770 
Q 2525 4250 2034 4250 
z
M 2034 4750 
Q 2819 4750 3233 4129 
Q 3647 3509 3647 2328 
Q 3647 1150 3233 529 
Q 2819 -91 2034 -91 
Q 1250 -91 836 529 
Q 422 1150 422 2328 
Q 422 3509 836 4129 
Q 1250 4750 2034 4750 
z
" transform="scale(0.015625)"/>
        <path id="DejaVuSans-2e" d="M 684 794 
L 1344 794 
L 1344 0 
L 684 0 
L 684 794 
z
" transform="scale(0.015625)"/>
       </defs>
       <use xlink:href="#DejaVuSans-30"/>
       <use xlink:href="#DejaVuSans-2e" x="63.623047"/>
       <use xlink:href="#DejaVuSans-30" x="95.410156"/>
      </g>
     </g>
    </g>
    <g id="xtick_2">
     <g id="line2d_2">
      <g>
       <use xlink:href="#ma8de784d09" x="130.090909" y="384.48" style="stroke: #000000; stroke-width: 0.8"/>
      </g>
     </g>
     <g id="text_2">
      <!-- 0.2 -->
      <g transform="translate(122.139347 399.078438) scale(0.1 -0.1)">
       <defs>
        <path id="DejaVuSans-32" d="M 1228 531 
L 3431 531 
L 3431 0 
L 469 0 
L 469 531 
Q 828 903 1448 1529 
Q 2069 2156 2228 2338 
Q 2531 2678 2651 2914 
Q 2772 3150 2772 3378 
Q 2772 3750 2511 3984 
Q 2250 4219 1831 4219 
Q 1534 4219 1204 4116 
Q 875 4013 500 3803 
L 500 4441 
Q 881 4594 1212 4672 
Q 1544 4750 1819 4750 
Q 2544 4750 2975 4387 
Q 3406 4025 3406 3419 
Q 3406 3131 3298 2873 
Q 3191 2616 2906 2266 
Q 2828 2175 2409 1742 
Q 1991 1309 1228 531 
z
" transform="scale(0.015625)"/>
       </defs>
       <use xlink:href="#DejaVuSans-30"/>
       <use xlink:href="#DejaVuSans-2e" x="63.623047"/>
       <use xlink:href="#DejaVuSans-32" x="95.410156"/>
      </g>
     </g>
    </g>
    <g id="xtick_3">
     <g id="line2d_3">
      <g>
       <use xlink:href="#ma8de784d09" x="190.963636" y="384.48" style="stroke: #000000; stroke-width: 0.8"/>
      </g>
     </g>
     <g id="text_3">
      <!-- 0.4 -->
      <g transform="translate(183.012074 399.078438) scale(0.1 -0.1)">
       <defs>
        <path id="DejaVuSans-34" d="M 2419 4116 
L 825 1625 
L 2419 1625 
L 2419 4116 
z
M 2253 4666 
L 3047 4666 
L 3047 1625 
L 3713 1625 
L 3713 1100 
L 3047 1100 
L 3047 0 
L 2419 0 
L 2419 1100 
L 313 1100 
L 313 1709 
L 2253 4666 
z
" transform="scale(0.015625)"/>
       </defs>
       <use xlink:href="#DejaVuSans-30"/>
       <use xlink:href="#DejaVuSans-2e" x="63.623047"/>
       <use xlink:href="#DejaVuSans-34" x="95.410156"/>
      </g>
     </g>
    </g>
    <g id="xtick_4">
     <g id="line2d_4">
      <g>
       <use xlink:href="#ma8de784d09" x="251.836364" y="384.48" style="stroke: #000000; stroke-width: 0.8"/>
      </g>
     </g>
     <g id="text_4">
      <!-- 0.6 -->
      <g transform="translate(243.884801 399.078438) scale(0.1 -0.1)">
       <defs>
        <path id="DejaVuSans-36" d="M 2113 2584 
Q 1688 2584 1439 2293 
Q 1191 2003 1191 1497 
Q 1191 994 1439 701 
Q 1688 409 2113 409 
Q 2538 409 2786 701 
Q 3034 994 3034 1497 
Q 3034 2003 2786 2293 
Q 2538 2584 2113 2584 
z
M 3366 4563 
L 3366 3988 
Q 3128 4100 2886 4159 
Q 2644 4219 2406 4219 
Q 1781 4219 1451 3797 
Q 1122 3375 1075 2522 
Q 1259 2794 1537 2939 
Q 1816 3084 2150 3084 
Q 2853 3084 3261 2657 
Q 3669 2231 3669 1497 
Q 3669 778 3244 343 
Q 2819 -91 2113 -91 
Q 1303 -91 875 529 
Q 447 1150 447 2328 
Q 447 3434 972 4092 
Q 1497 4750 2381 4750 
Q 2619 4750 2861 4703 
Q 3103 4656 3366 4563 
z
" transform="scale(0.015625)"/>
       </defs>
       <use xlink:href="#DejaVuSans-30"/>
       <use xlink:href="#DejaVuSans-2e" x="63.623047"/>
       <use xlink:href="#DejaVuSans-36" x="95.410156"/>
      </g>
     </g>
    </g>
    <g id="xtick_5">
     <g id="line2d_5">
      <g>
       <use xlink:href="#ma8de784d09" x="312.709091" y="384.48" style="stroke: #000000; stroke-width: 0.8"/>
      </g>
     </g>
     <g id="text_5">
      <!-- 0.8 -->
      <g transform="translate(304.757528 399.078438) scale(0.1 -0.1)">
       <defs>
        <path id="DejaVuSans-38" d="M 2034 2216 
Q 1584 2216 1326 1975 
Q 1069 1734 1069 1313 
Q 1069 891 1326 650 
Q 1584 409 2034 409 
Q 2484 409 2743 651 
Q 3003 894 3003 1313 
Q 3003 1734 2745 1975 
Q 2488 2216 2034 2216 
z
M 1403 2484 
Q 997 2584 770 2862 
Q 544 3141 544 3541 
Q 544 4100 942 4425 
Q 1341 4750 2034 4750 
Q 2731 4750 3128 4425 
Q 3525 4100 3525 3541 
Q 3525 3141 3298 2862 
Q 3072 2584 2669 2484 
Q 3125 2378 3379 2068 
Q 3634 1759 3634 1313 
Q 3634 634 3220 271 
Q 2806 -91 2034 -91 
Q 1263 -91 848 271 
Q 434 634 434 1313 
Q 434 1759 690 2068 
Q 947 2378 1403 2484 
z
M 1172 3481 
Q 1172 3119 1398 2916 
Q 1625 2713 2034 2713 
Q 2441 2713 2670 2916 
Q 2900 3119 2900 3481 
Q 2900 3844 2670 4047 
Q 2441 4250 2034 4250 
Q 1625 4250 1398 4047 
Q 1172 3844 1172 3481 
z
" transform="scale(0.015625)"/>
       </defs>
       <use xlink:href="#DejaVuSans-30"/>
       <use xlink:href="#DejaVuSans-2e" x="63.623047"/>
       <use xlink:href="#DejaVuSans-38" x="95.410156"/>
      </g>
     </g>
    </g>
    <g id="xtick_6">
     <g id="line2d_6">
      <g>
       <use xlink:href="#ma8de784d09" x="373.581818" y="384.48" style="stroke: #000000; stroke-width: 0.8"/>
      </g>
     </g>
     <g id="text_6">
      <!-- 1.0 -->
      <g transform="translate(365.630256 399.078438) scale(0.1 -0.1)">
       <defs>
        <path id="DejaVuSans-31" d="M 794 531 
L 1825 531 
L 1825 4091 
L 703 3866 
L 703 4441 
L 1819 4666 
L 2450 4666 
L 2450 531 
L 3481 531 
L 3481 0 
L 794 0 
L 794 531 
z
" transform="scale(0.015625)"/>
       </defs>
       <use xlink:href="#DejaVuSans-31"/>
       <use xlink:href="#DejaVuSans-2e" x="63.623047"/>
       <use xlink:href="#DejaVuSans-30" x="95.410156"/>
      </g>
     </g>
    </g>
    <g id="text_7">
     <!-- $r$ -->
     <g transform="translate(218.04 417.315625) scale(0.16 -0.16)">
      <defs>
       <path id="DejaVuSans-Oblique-72" d="M 2853 2969 
Q 2766 3016 2653 3041 
Q 2541 3066 2413 3066 
Q 1953 3066 1609 2717 
Q 1266 2369 1153 1784 
L 800 0 
L 225 0 
L 909 3500 
L 1484 3500 
L 1375 2956 
Q 1603 3259 1920 3421 
Q 2238 3584 2597 3584 
Q 2691 3584 2781 3573 
Q 2872 3563 2963 3538 
L 2853 2969 
z
" transform="scale(0.015625)"/>
      </defs>
      <use xlink:href="#DejaVuSans-Oblique-72"/>
     </g>
    </g>
   </g>
   <g id="matplotlib.axis_2">
    <g id="ytick_1">
     <g id="line2d_7">
      <defs>
       <path id="m74c618725b" d="M 0 0 
L -3.5 0 
" style="stroke: #000000; stroke-width: 0.8"/>
      </defs>
      <g>
       <use xlink:href="#m74c618725b" x="54" y="369.36" style="stroke: #000000; stroke-width: 0.8"/>
      </g>
     </g>
     <g id="text_8">
      <!-- 0.0 -->
      <g transform="translate(31.096875 373.159219) scale(0.1 -0.1)">
       <use xlink:href="#DejaVuSans-30"/>
       <use xlink:href="#DejaVuSans-2e" x="63.623047"/>
       <use xlink:href="#DejaVuSans-30" x="95.410156"/>
      </g>
     </g>
    </g>
    <g id="ytick_2">
     <g id="line2d_8">
      <g>
       <use xlink:href="#m74c618725b" x="54" y="296.365211" style="stroke: #000000; stroke-width: 0.8"/>
      </g>
     </g>
     <g id="text_9">
      <!-- 0.5 -->
      <g transform="translate(31.096875 300.16443) scale(0.1 -0.1)">
       <defs>
        <path id="DejaVuSans-35" d="M 691 4666 
L 3169 4666 
L 3169 4134 
L 1269 4134 
L 1269 2991 
Q 1406 3038 1543 3061 
Q 1681 3084 1819 3084 
Q 2600 3084 3056 2656 
Q 3513 2228 3513 1497 
Q 3513 744 3044 326 
Q 2575 -91 1722 -91 
Q 1428 -91 1123 -41 
Q 819 9 494 109 
L 494 744 
Q 775 591 1075 516 
Q 1375 441 1709 441 
Q 2250 441 2565 725 
Q 2881 1009 2881 1497 
Q 2881 1984 2565 2268 
Q 2250 2553 1709 2553 
Q 1456 2553 1204 2497 
Q 953 2441 691 2322 
L 691 4666 
z
" transform="scale(0.015625)"/>
       </defs>
       <use xlink:href="#DejaVuSans-30"/>
       <use xlink:href="#DejaVuSans-2e" x="63.623047"/>
       <use xlink:href="#DejaVuSans-35" x="95.410156"/>
      </g>
     </g>
    </g>
    <g id="ytick_3">
     <g id="line2d_9">
      <g>
       <use xlink:href="#m74c618725b" x="54" y="223.370422" style="stroke: #000000; stroke-width: 0.8"/>
      </g>
     </g>
     <g id="text_10">
      <!-- 1.0 -->
      <g transform="translate(31.096875 227.169641) scale(0.1 -0.1)">
       <use xlink:href="#DejaVuSans-31"/>
       <use xlink:href="#DejaVuSans-2e" x="63.623047"/>
       <use xlink:href="#DejaVuSans-30" x="95.410156"/>
      </g>
     </g>
    </g>
    <g id="ytick_4">
     <g id="line2d_10">
      <g>
       <use xlink:href="#m74c618725b" x="54" y="150.375634" style="stroke: #000000; stroke-width: 0.8"/>
      </g>
     </g>
     <g id="text_11">
      <!-- 1.5 -->
      <g transform="translate(31.096875 154.174852) scale(0.1 -0.1)">
       <use xlink:href="#DejaVuSans-31"/>
       <use xlink:href="#DejaVuSans-2e" x="63.623047"/>
       <use xlink:href="#DejaVuSans-35" x="95.410156"/>
      </g>
     </g>
    </g>
    <g id="ytick_5">
     <g id="line2d_11">
      <g>
       <use xlink:href="#m74c618725b" x="54" y="77.380845" style="stroke: #000000; stroke-width: 0.8"/>
      </g>
     </g>
     <g id="text_12">
      <!-- 2.0 -->
      <g transform="translate(31.096875 81.180063) scale(0.1 -0.1)">
       <use xlink:href="#DejaVuSans-32"/>
       <use xlink:href="#DejaVuSans-2e" x="63.623047"/>
       <use xlink:href="#DejaVuSans-30" x="95.410156"/>
      </g>
     </g>
    </g>
    <g id="text_13">
     <!-- $g_{C}$ Values -->
     <g transform="translate(23.736875 256.72) rotate(-90) scale(0.16 -0.16)">
      <defs>
       <path id="DejaVuSans-Oblique-67" d="M 3816 3500 
L 3219 434 
Q 3047 -456 2561 -893 
Q 2075 -1331 1253 -1331 
Q 950 -1331 690 -1286 
Q 431 -1241 206 -1147 
L 313 -588 
Q 525 -725 762 -790 
Q 1000 -856 1269 -856 
Q 1816 -856 2167 -557 
Q 2519 -259 2631 300 
L 2681 563 
Q 2441 288 2122 144 
Q 1803 0 1434 0 
Q 903 0 598 351 
Q 294 703 294 1319 
Q 294 1803 478 2267 
Q 663 2731 997 3091 
Q 1219 3328 1514 3456 
Q 1809 3584 2131 3584 
Q 2484 3584 2746 3420 
Q 3009 3256 3138 2956 
L 3238 3500 
L 3816 3500 
z
M 2950 2216 
Q 2950 2641 2750 2872 
Q 2550 3103 2181 3103 
Q 1953 3103 1747 3012 
Q 1541 2922 1394 2759 
Q 1156 2491 1023 2127 
Q 891 1763 891 1375 
Q 891 944 1092 712 
Q 1294 481 1672 481 
Q 2219 481 2584 976 
Q 2950 1472 2950 2216 
z
" transform="scale(0.015625)"/>
       <path id="DejaVuSans-Oblique-43" d="M 4447 4306 
L 4319 3641 
Q 4019 3944 3683 4091 
Q 3347 4238 2956 4238 
Q 2422 4238 2017 3981 
Q 1613 3725 1319 3200 
Q 1131 2863 1032 2486 
Q 934 2109 934 1728 
Q 934 1091 1264 756 
Q 1594 422 2222 422 
Q 2656 422 3056 561 
Q 3456 700 3834 978 
L 3688 231 
Q 3316 72 2936 -9 
Q 2556 -91 2175 -91 
Q 1278 -91 773 396 
Q 269 884 269 1753 
Q 269 2309 461 2846 
Q 653 3384 1013 3828 
Q 1394 4300 1883 4525 
Q 2372 4750 3022 4750 
Q 3422 4750 3780 4639 
Q 4138 4528 4447 4306 
z
" transform="scale(0.015625)"/>
       <path id="DejaVuSans-20" transform="scale(0.015625)"/>
       <path id="DejaVuSans-56" d="M 1831 0 
L 50 4666 
L 709 4666 
L 2188 738 
L 3669 4666 
L 4325 4666 
L 2547 0 
L 1831 0 
z
" transform="scale(0.015625)"/>
       <path id="DejaVuSans-61" d="M 2194 1759 
Q 1497 1759 1228 1600 
Q 959 1441 959 1056 
Q 959 750 1161 570 
Q 1363 391 1709 391 
Q 2188 391 2477 730 
Q 2766 1069 2766 1631 
L 2766 1759 
L 2194 1759 
z
M 3341 1997 
L 3341 0 
L 2766 0 
L 2766 531 
Q 2569 213 2275 61 
Q 1981 -91 1556 -91 
Q 1019 -91 701 211 
Q 384 513 384 1019 
Q 384 1609 779 1909 
Q 1175 2209 1959 2209 
L 2766 2209 
L 2766 2266 
Q 2766 2663 2505 2880 
Q 2244 3097 1772 3097 
Q 1472 3097 1187 3025 
Q 903 2953 641 2809 
L 641 3341 
Q 956 3463 1253 3523 
Q 1550 3584 1831 3584 
Q 2591 3584 2966 3190 
Q 3341 2797 3341 1997 
z
" transform="scale(0.015625)"/>
       <path id="DejaVuSans-6c" d="M 603 4863 
L 1178 4863 
L 1178 0 
L 603 0 
L 603 4863 
z
" transform="scale(0.015625)"/>
       <path id="DejaVuSans-75" d="M 544 1381 
L 544 3500 
L 1119 3500 
L 1119 1403 
Q 1119 906 1312 657 
Q 1506 409 1894 409 
Q 2359 409 2629 706 
Q 2900 1003 2900 1516 
L 2900 3500 
L 3475 3500 
L 3475 0 
L 2900 0 
L 2900 538 
Q 2691 219 2414 64 
Q 2138 -91 1772 -91 
Q 1169 -91 856 284 
Q 544 659 544 1381 
z
M 1991 3584 
L 1991 3584 
z
" transform="scale(0.015625)"/>
       <path id="DejaVuSans-65" d="M 3597 1894 
L 3597 1613 
L 953 1613 
Q 991 1019 1311 708 
Q 1631 397 2203 397 
Q 2534 397 2845 478 
Q 3156 559 3463 722 
L 3463 178 
Q 3153 47 2828 -22 
Q 2503 -91 2169 -91 
Q 1331 -91 842 396 
Q 353 884 353 1716 
Q 353 2575 817 3079 
Q 1281 3584 2069 3584 
Q 2775 3584 3186 3129 
Q 3597 2675 3597 1894 
z
M 3022 2063 
Q 3016 2534 2758 2815 
Q 2500 3097 2075 3097 
Q 1594 3097 1305 2825 
Q 1016 2553 972 2059 
L 3022 2063 
z
" transform="scale(0.015625)"/>
       <path id="DejaVuSans-73" d="M 2834 3397 
L 2834 2853 
Q 2591 2978 2328 3040 
Q 2066 3103 1784 3103 
Q 1356 3103 1142 2972 
Q 928 2841 928 2578 
Q 928 2378 1081 2264 
Q 1234 2150 1697 2047 
L 1894 2003 
Q 2506 1872 2764 1633 
Q 3022 1394 3022 966 
Q 3022 478 2636 193 
Q 2250 -91 1575 -91 
Q 1294 -91 989 -36 
Q 684 19 347 128 
L 347 722 
Q 666 556 975 473 
Q 1284 391 1588 391 
Q 1994 391 2212 530 
Q 2431 669 2431 922 
Q 2431 1156 2273 1281 
Q 2116 1406 1581 1522 
L 1381 1569 
Q 847 1681 609 1914 
Q 372 2147 372 2553 
Q 372 3047 722 3315 
Q 1072 3584 1716 3584 
Q 2034 3584 2315 3537 
Q 2597 3491 2834 3397 
z
" transform="scale(0.015625)"/>
      </defs>
      <use xlink:href="#DejaVuSans-Oblique-67" transform="translate(0 0.015625)"/>
      <use xlink:href="#DejaVuSans-Oblique-43" transform="translate(63.476562 -16.390625) scale(0.7)"/>
      <use xlink:href="#DejaVuSans-20" transform="translate(115.087891 0.015625)"/>
      <use xlink:href="#DejaVuSans-56" transform="translate(146.875 0.015625)"/>
      <use xlink:href="#DejaVuSans-61" transform="translate(215.283203 0.015625)"/>
      <use xlink:href="#DejaVuSans-6c" transform="translate(276.5625 0.015625)"/>
      <use xlink:href="#DejaVuSans-75" transform="translate(304.345703 0.015625)"/>
      <use xlink:href="#DejaVuSans-65" transform="translate(367.724609 0.015625)"/>
      <use xlink:href="#DejaVuSans-73" transform="translate(429.248047 0.015625)"/>
     </g>
    </g>
   </g>
   <g id="line2d_12">
    <path d="M 69.218182 77.380845 
L 70.499174 77.380845 
L 71.780165 77.380845 
L 73.061157 77.380845 
L 74.342149 77.380845 
L 75.62314 77.380845 
L 76.904132 77.380845 
L 78.185124 77.380845 
L 79.466116 77.380845 
L 80.747107 77.380845 
L 82.028099 77.380845 
L 83.309091 77.380845 
L 84.590083 77.380845 
L 85.871074 77.380845 
L 87.152066 77.380845 
L 88.433058 77.380845 
L 89.71405 77.380845 
L 90.995041 77.380845 
L 92.276033 77.380845 
L 93.557025 77.380845 
L 94.838017 77.380845 
L 96.119008 77.380845 
L 97.4 77.380845 
L 98.680992 77.380845 
L 99.961983 77.380845 
L 101.242975 77.380845 
L 102.523967 77.380845 
L 103.804959 77.380845 
L 105.08595 77.380845 
L 106.366942 77.380845 
L 107.647934 77.380845 
L 108.928926 77.380845 
L 110.209917 77.380845 
L 111.490909 77.380845 
L 112.771901 77.380845 
L 114.052893 77.380845 
L 115.333884 77.380845 
L 116.614876 77.380845 
L 117.895868 77.380845 
L 119.17686 77.380845 
L 120.457851 77.380845 
L 121.738843 77.380845 
L 123.019835 77.380845 
L 124.300826 77.380845 
L 125.581818 77.380845 
L 126.86281 77.380845 
L 128.143802 77.380845 
L 129.424793 77.380845 
L 130.705785 77.380845 
L 131.986777 77.380845 
L 133.267769 77.380845 
L 134.54876 77.380845 
L 135.829752 77.380845 
L 137.110744 77.380845 
L 138.391736 77.380845 
L 139.672727 77.380845 
L 140.953719 77.380845 
L 142.234711 77.380845 
L 143.515702 77.380845 
L 144.796694 77.380845 
L 146.077686 77.380845 
L 147.358678 77.380845 
L 148.639669 77.380845 
L 149.920661 77.380845 
L 151.201653 77.380845 
L 152.482645 77.380845 
L 153.763636 77.380845 
L 155.044628 77.380845 
L 156.32562 77.380845 
L 157.606612 77.380845 
L 158.887603 77.380845 
L 160.168595 77.380845 
L 161.449587 77.380845 
L 162.730579 77.380845 
L 164.01157 77.380845 
L 165.292562 77.380845 
L 166.573554 77.380845 
L 167.854545 77.380845 
L 169.135537 77.380845 
L 170.416529 77.380845 
L 171.697521 77.380845 
L 172.978512 77.380845 
L 174.259504 77.380845 
L 175.540496 77.380845 
L 176.821488 77.380845 
L 178.102479 77.380845 
L 179.383471 77.380845 
L 180.664463 77.380845 
L 181.945455 77.380845 
L 183.226446 77.380845 
L 184.507438 77.380845 
L 185.78843 77.380845 
L 187.069421 77.380845 
L 188.350413 77.380845 
L 189.631405 77.380845 
L 190.912397 77.380845 
L 192.193388 77.380845 
L 193.47438 77.380845 
L 194.755372 77.380845 
L 196.036364 77.380845 
" clip-path="url(#pbe6e3a7142)" style="fill: none; stroke: #0000ff; stroke-width: 1.5; stroke-linecap: square"/>
   </g>
   <g id="line2d_13">
    <path d="M 196.036364 77.380845 
L 196.218651 76.375297 
L 196.400939 75.451242 
L 196.583227 74.60075 
L 196.765515 73.816886 
L 196.947802 73.093563 
L 197.13009 72.425411 
L 197.312378 71.807677 
L 197.494665 71.236141 
L 197.676953 70.707039 
L 197.859241 70.217005 
L 198.041529 69.763021 
L 198.223816 69.342372 
L 198.406104 68.952608 
L 198.588392 68.591515 
L 198.77068 68.257083 
L 198.952967 67.947488 
L 199.135255 67.661067 
L 199.317543 67.396305 
L 199.49983 67.151812 
L 199.682118 66.96 
L 199.864406 67.017279 
L 200.046694 67.075268 
L 200.228981 67.13396 
L 200.411269 67.193349 
L 200.593557 67.253427 
L 200.775844 67.314188 
L 200.958132 67.375625 
L 201.14042 67.437731 
L 201.322708 67.5005 
L 201.504995 67.563926 
L 201.687283 67.628001 
L 201.869571 67.69272 
L 202.051859 67.758077 
L 202.234146 67.824065 
L 202.416434 67.890678 
L 202.598722 67.957911 
L 202.781009 68.025757 
L 202.963297 68.094211 
L 203.145585 68.163266 
L 203.327873 68.232918 
L 203.51016 68.303161 
L 203.692448 68.373989 
L 203.874736 68.445396 
L 204.057024 68.517378 
L 204.239311 68.589928 
L 204.421599 68.663042 
L 204.603887 68.736715 
L 204.786174 68.810941 
L 204.968462 68.885715 
L 205.15075 68.961032 
L 205.333038 69.036888 
L 205.515325 69.113277 
L 205.697613 69.190195 
L 205.879901 69.267636 
L 206.062189 69.345597 
L 206.244476 69.424072 
L 206.426764 69.503056 
L 206.609052 69.582546 
L 206.791339 69.662537 
L 206.973627 69.743024 
L 207.155915 69.824004 
L 207.338203 69.90547 
L 207.52049 69.98742 
L 207.702778 70.069849 
L 207.885066 70.152753 
L 208.067353 70.236128 
L 208.249641 70.319969 
L 208.431929 70.404274 
L 208.614217 70.489036 
L 208.796504 70.574254 
L 208.978792 70.659922 
L 209.16108 70.746037 
L 209.343368 70.832595 
L 209.525655 70.919592 
L 209.707943 71.007025 
L 209.890231 71.09489 
L 210.072518 71.183184 
L 210.254806 71.271902 
L 210.437094 71.361041 
L 210.619382 71.450597 
L 210.801669 71.540568 
L 210.983957 71.630949 
L 211.166245 71.721737 
L 211.348533 71.81293 
L 211.53082 71.904522 
L 211.713108 71.996512 
L 211.895396 72.088896 
L 212.077683 72.181671 
L 212.259971 72.274833 
L 212.442259 72.36838 
L 212.624547 72.462308 
L 212.806834 72.556614 
L 212.989122 72.651295 
L 213.17141 72.746348 
L 213.353698 72.84177 
L 213.535985 72.937559 
L 213.718273 73.03371 
L 213.900561 73.130222 
L 214.082848 73.227092 
" clip-path="url(#pbe6e3a7142)" style="fill: none; stroke: #008000; stroke-width: 1.5; stroke-linecap: square"/>
   </g>
   <g id="line2d_14">
    <path d="M 214.082848 171.536673 
L 214.556483 172.280068 
L 215.030117 173.02503 
L 215.503752 173.771614 
L 215.977386 174.519875 
L 216.45102 175.269868 
L 216.924655 176.021646 
L 217.398289 176.775264 
L 217.871923 177.530773 
L 218.345558 178.288228 
L 218.819192 179.047682 
L 219.292826 179.809186 
L 219.766461 180.572793 
L 220.240095 181.338554 
L 220.713729 182.106523 
L 221.187364 182.87675 
L 221.660998 183.649287 
L 222.134633 184.424186 
L 222.608267 185.201498 
L 223.081901 185.981274 
L 223.555536 186.763566 
L 224.02917 187.548425 
L 224.502804 188.335902 
L 224.976439 189.126049 
L 225.450073 189.918916 
L 225.923707 190.714556 
L 226.397342 191.513019 
L 226.870976 192.314357 
L 227.34461 193.118622 
L 227.818245 193.925865 
L 228.291879 194.736139 
L 228.765514 195.549495 
L 229.239148 196.365986 
L 229.712782 197.185664 
L 230.186417 198.008582 
L 230.660051 198.834792 
L 231.133685 199.664348 
L 231.60732 200.497303 
L 232.080954 201.333711 
L 232.554588 202.173626 
L 233.028223 203.017102 
L 233.501857 203.864193 
L 233.975492 204.714955 
L 234.449126 205.569443 
L 234.92276 206.427712 
L 235.396395 207.289819 
L 235.870029 208.15582 
L 236.343663 209.025772 
L 236.817298 209.899732 
L 237.290932 210.777758 
L 237.764566 211.659909 
L 238.238201 212.546243 
L 238.711835 213.436819 
L 239.185469 214.331698 
L 239.659104 215.23094 
L 240.132738 216.134605 
L 240.606373 217.042755 
L 241.080007 217.955452 
L 241.553641 218.87276 
L 242.027276 219.794741 
L 242.50091 220.721459 
L 242.974544 221.652979 
L 243.448179 222.589366 
L 243.921813 223.530687 
L 244.395447 224.477008 
L 244.869082 225.428397 
L 245.342716 226.384921 
L 245.81635 227.346651 
L 246.289985 228.313656 
L 246.763619 229.286006 
L 247.237254 230.263774 
L 247.710888 231.247031 
L 248.184522 232.235852 
L 248.658157 233.230309 
L 249.131791 234.230479 
L 249.605425 235.236437 
L 250.07906 236.24826 
L 250.552694 237.266027 
L 251.026328 238.289817 
L 251.499963 239.319709 
L 251.973597 240.355785 
L 252.447232 241.398128 
L 252.920866 242.446819 
L 253.3945 243.501945 
L 253.868135 244.563591 
L 254.341769 245.631844 
L 254.815403 246.706792 
L 255.289038 247.788523 
L 255.762672 248.87713 
L 256.236306 249.972704 
L 256.709941 251.075339 
L 257.183575 252.185128 
L 257.657209 253.302169 
L 258.130844 254.426558 
L 258.604478 255.558396 
L 259.078113 256.697781 
L 259.551747 257.844817 
L 260.025381 258.999607 
L 260.499016 260.162256 
L 260.97265 261.332819 
" clip-path="url(#pbe6e3a7142)" style="fill: none; stroke: #ff0000; stroke-width: 1.5; stroke-linecap: square"/>
   </g>
   <g id="line2d_15">
    <path d="M 260.97265 261.332871 
L 262.110116 262.424054 
L 263.247583 263.515237 
L 264.385049 264.60642 
L 265.522515 265.697603 
L 266.659982 266.788787 
L 267.797448 267.87997 
L 268.934914 268.971153 
L 270.072381 270.062336 
L 271.209847 271.153519 
L 272.347313 272.244702 
L 273.48478 273.335885 
L 274.622246 274.427068 
L 275.759712 275.518252 
L 276.897179 276.609435 
L 278.034645 277.700618 
L 279.172112 278.791801 
L 280.309578 279.882984 
L 281.447044 280.974167 
L 282.584511 282.06535 
L 283.721977 283.156533 
L 284.859443 284.247717 
L 285.99691 285.3389 
L 287.134376 286.430083 
L 288.271842 287.521266 
L 289.409309 288.612449 
L 290.546775 289.703632 
L 291.684241 290.794815 
L 292.821708 291.885998 
L 293.959174 292.977182 
L 295.09664 294.068365 
L 296.234107 295.159548 
L 297.371573 296.250731 
L 298.509039 297.341914 
L 299.646506 298.433097 
L 300.783972 299.52428 
L 301.921438 300.615463 
L 303.058905 301.706646 
L 304.196371 302.79783 
L 305.333837 303.889013 
L 306.471304 304.980196 
L 307.60877 306.071379 
L 308.746236 307.162562 
L 309.883703 308.253745 
L 311.021169 309.344928 
L 312.158636 310.436111 
L 313.296102 311.527295 
L 314.433568 312.618478 
L 315.571035 313.709661 
L 316.708501 314.800844 
L 317.845967 315.892027 
L 318.983434 316.98321 
L 320.1209 318.074393 
L 321.258366 319.165576 
L 322.395833 320.25676 
L 323.533299 321.347943 
L 324.670765 322.439126 
L 325.808232 323.530309 
L 326.945698 324.621492 
L 328.083164 325.712675 
L 329.220631 326.803858 
L 330.358097 327.895041 
L 331.495563 328.986225 
L 332.63303 330.077408 
L 333.770496 331.168591 
L 334.907962 332.259774 
L 336.045429 333.350957 
L 337.182895 334.44214 
L 338.320361 335.533323 
L 339.457828 336.624506 
L 340.595294 337.715689 
L 341.732761 338.806873 
L 342.870227 339.898056 
L 344.007693 340.989239 
L 345.14516 342.080422 
L 346.282626 343.171605 
L 347.420092 344.262788 
L 348.557559 345.353971 
L 349.695025 346.445154 
L 350.832491 347.536338 
L 351.969958 348.627521 
L 353.107424 349.718704 
L 354.24489 350.809887 
L 355.382357 351.90107 
L 356.519823 352.992253 
L 357.657289 354.083436 
L 358.794756 355.174619 
L 359.932222 356.265803 
L 361.069688 357.356986 
L 362.207155 358.448169 
L 363.344621 359.539352 
L 364.482087 360.630535 
L 365.619554 361.721718 
L 366.75702 362.812901 
L 367.894486 363.904084 
L 369.031953 364.995268 
L 370.169419 366.086451 
L 371.306885 367.177634 
L 372.444352 368.268817 
L 373.581818 369.36 
" clip-path="url(#pbe6e3a7142)" style="fill: none; stroke: #800080; stroke-width: 1.5; stroke-linecap: square"/>
   </g>
   <g id="line2d_16">
    <path d="M 199.65974 384.48 
L 199.65974 51.84 
" clip-path="url(#pbe6e3a7142)" style="fill: none; stroke-dasharray: 5.55,2.4; stroke-dashoffset: 0; stroke: #808080; stroke-width: 1.5"/>
   </g>
   <g id="patch_3">
    <path d="M 54 384.48 
L 54 51.84 
" style="fill: none; stroke: #000000; stroke-width: 0.8; stroke-linejoin: miter; stroke-linecap: square"/>
   </g>
   <g id="patch_4">
    <path d="M 388.8 384.48 
L 388.8 51.84 
" style="fill: none; stroke: #000000; stroke-width: 0.8; stroke-linejoin: miter; stroke-linecap: square"/>
   </g>
   <g id="patch_5">
    <path d="M 54 384.48 
L 388.8 384.48 
" style="fill: none; stroke: #000000; stroke-width: 0.8; stroke-linejoin: miter; stroke-linecap: square"/>
   </g>
   <g id="patch_6">
    <path d="M 54 51.84 
L 388.8 51.84 
" style="fill: none; stroke: #000000; stroke-width: 0.8; stroke-linejoin: miter; stroke-linecap: square"/>
   </g>
   <g id="text_14">
    <!-- $g_C(\alpha \beta, \gamma)$ -->
    <g transform="translate(182.34 45.84) scale(0.18 -0.18)">
     <defs>
      <path id="DejaVuSans-28" d="M 1984 4856 
Q 1566 4138 1362 3434 
Q 1159 2731 1159 2009 
Q 1159 1288 1364 580 
Q 1569 -128 1984 -844 
L 1484 -844 
Q 1016 -109 783 600 
Q 550 1309 550 2009 
Q 550 2706 781 3412 
Q 1013 4119 1484 4856 
L 1984 4856 
z
" transform="scale(0.015625)"/>
      <path id="DejaVuSans-Oblique-3b1" d="M 2619 1628 
L 2622 2350 
Q 2625 3088 2069 3091 
Q 1653 3094 1394 2747 
Q 1069 2319 959 1747 
Q 825 1059 994 731 
Q 1169 397 1547 397 
Q 1966 397 2319 1063 
L 2619 1628 
z
M 2166 3578 
Q 3141 3594 3128 2584 
Q 3128 2584 3616 3500 
L 4128 3500 
L 3119 1603 
L 3109 919 
Q 3109 766 3194 638 
Q 3291 488 3391 488 
L 3669 488 
L 3575 0 
L 3228 0 
Q 2934 0 2722 263 
Q 2622 394 2619 669 
Q 2416 334 2066 50 
Q 1900 -81 1453 -78 
Q 722 -72 456 397 
Q 184 884 353 1747 
Q 534 2675 1009 3097 
Q 1544 3569 2166 3578 
z
" transform="scale(0.015625)"/>
      <path id="DejaVuSans-Oblique-3b2" d="M 872 216 
L 572 -1331 
L -6 -1331 
L 928 3478 
Q 1206 4903 2538 4903 
Q 3888 4903 3659 3700 
Q 3503 2844 2894 2531 
Q 3713 2250 3553 1416 
Q 3272 -69 1759 -66 
Q 1097 -63 872 216 
z
M 1019 966 
Q 1259 422 1875 425 
Q 2775 425 2966 1406 
Q 3138 2288 1675 2219 
L 1778 2750 
Q 2909 2731 3106 3750 
Q 3241 4438 2509 4434 
Q 1691 4434 1503 3459 
L 1019 966 
z
" transform="scale(0.015625)"/>
      <path id="DejaVuSans-2c" d="M 750 794 
L 1409 794 
L 1409 256 
L 897 -744 
L 494 -744 
L 750 256 
L 750 794 
z
" transform="scale(0.015625)"/>
      <path id="DejaVuSans-Oblique-3b3" d="M 1491 2950 
L 1838 788 
L 3456 3500 
L 4066 3500 
L 1972 0 
L 1713 -1331 
L 1138 -1331 
L 1397 0 
L 988 2613 
Q 925 3006 628 3006 
L 475 3006 
L 569 3500 
L 788 3500 
Q 1403 3500 1491 2950 
z
" transform="scale(0.015625)"/>
      <path id="DejaVuSans-29" d="M 513 4856 
L 1013 4856 
Q 1481 4119 1714 3412 
Q 1947 2706 1947 2009 
Q 1947 1309 1714 600 
Q 1481 -109 1013 -844 
L 513 -844 
Q 928 -128 1133 580 
Q 1338 1288 1338 2009 
Q 1338 2731 1133 3434 
Q 928 4138 513 4856 
z
" transform="scale(0.015625)"/>
     </defs>
     <use xlink:href="#DejaVuSans-Oblique-67" transform="translate(0 0.390625)"/>
     <use xlink:href="#DejaVuSans-Oblique-43" transform="translate(63.476562 -16.015625) scale(0.7)"/>
     <use xlink:href="#DejaVuSans-28" transform="translate(115.087891 0.390625)"/>
     <use xlink:href="#DejaVuSans-Oblique-3b1" transform="translate(154.101562 0.390625)"/>
     <use xlink:href="#DejaVuSans-Oblique-3b2" transform="translate(220.019531 0.390625)"/>
     <use xlink:href="#DejaVuSans-2c" transform="translate(283.837891 0.390625)"/>
     <use xlink:href="#DejaVuSans-Oblique-3b3" transform="translate(335.107422 0.390625)"/>
     <use xlink:href="#DejaVuSans-29" transform="translate(394.287109 0.390625)"/>
    </g>
   </g>
   <g id="legend_1">
    <g id="patch_7">
     <path d="M 317.96 157.96 
L 379 157.96 
Q 381.8 157.96 381.8 155.16 
L 381.8 61.64 
Q 381.8 58.84 379 58.84 
L 317.96 58.84 
Q 315.16 58.84 315.16 61.64 
L 315.16 155.16 
Q 315.16 157.96 317.96 157.96 
z
" style="fill: #ffffff; opacity: 0.8; stroke: #cccccc; stroke-linejoin: miter"/>
    </g>
    <g id="line2d_17">
     <path d="M 320.76 72.14 
L 334.76 72.14 
L 348.76 72.14 
" style="fill: none; stroke: #0000ff; stroke-width: 1.5; stroke-linecap: square"/>
    </g>
    <g id="text_15">
     <!-- $g_C^1$ -->
     <g transform="translate(359.96 77.04) scale(0.14 -0.14)">
      <use xlink:href="#DejaVuSans-Oblique-67" transform="translate(0 0.684375)"/>
      <use xlink:href="#DejaVuSans-31" transform="translate(68.126458 38.965625) scale(0.7)"/>
      <use xlink:href="#DejaVuSans-Oblique-43" transform="translate(63.476562 -26.659375) scale(0.7)"/>
     </g>
    </g>
    <g id="line2d_18">
     <path d="M 320.76 95.94 
L 334.76 95.94 
L 348.76 95.94 
" style="fill: none; stroke: #008000; stroke-width: 1.5; stroke-linecap: square"/>
    </g>
    <g id="text_16">
     <!-- $g_C^2$ -->
     <g transform="translate(359.96 100.84) scale(0.14 -0.14)">
      <use xlink:href="#DejaVuSans-Oblique-67" transform="translate(0 0.765625)"/>
      <use xlink:href="#DejaVuSans-32" transform="translate(68.126458 39.046875) scale(0.7)"/>
      <use xlink:href="#DejaVuSans-Oblique-43" transform="translate(63.476562 -26.578125) scale(0.7)"/>
     </g>
    </g>
    <g id="line2d_19">
     <path d="M 320.76 119.74 
L 334.76 119.74 
L 348.76 119.74 
" style="fill: none; stroke: #ff0000; stroke-width: 1.5; stroke-linecap: square"/>
    </g>
    <g id="text_17">
     <!-- $g_C^3$ -->
     <g transform="translate(359.96 124.64) scale(0.14 -0.14)">
      <defs>
       <path id="DejaVuSans-33" d="M 2597 2516 
Q 3050 2419 3304 2112 
Q 3559 1806 3559 1356 
Q 3559 666 3084 287 
Q 2609 -91 1734 -91 
Q 1441 -91 1130 -33 
Q 819 25 488 141 
L 488 750 
Q 750 597 1062 519 
Q 1375 441 1716 441 
Q 2309 441 2620 675 
Q 2931 909 2931 1356 
Q 2931 1769 2642 2001 
Q 2353 2234 1838 2234 
L 1294 2234 
L 1294 2753 
L 1863 2753 
Q 2328 2753 2575 2939 
Q 2822 3125 2822 3475 
Q 2822 3834 2567 4026 
Q 2313 4219 1838 4219 
Q 1578 4219 1281 4162 
Q 984 4106 628 3988 
L 628 4550 
Q 988 4650 1302 4700 
Q 1616 4750 1894 4750 
Q 2613 4750 3031 4423 
Q 3450 4097 3450 3541 
Q 3450 3153 3228 2886 
Q 3006 2619 2597 2516 
z
" transform="scale(0.015625)"/>
      </defs>
      <use xlink:href="#DejaVuSans-Oblique-67" transform="translate(0 0.765625)"/>
      <use xlink:href="#DejaVuSans-33" transform="translate(68.126458 39.046875) scale(0.7)"/>
      <use xlink:href="#DejaVuSans-Oblique-43" transform="translate(63.476562 -26.578125) scale(0.7)"/>
     </g>
    </g>
    <g id="line2d_20">
     <path d="M 320.76 143.4 
L 334.76 143.4 
L 348.76 143.4 
" style="fill: none; stroke: #800080; stroke-width: 1.5; stroke-linecap: square"/>
    </g>
    <g id="text_18">
     <!-- $g_C^4$ -->
     <g transform="translate(359.96 148.3) scale(0.14 -0.14)">
      <use xlink:href="#DejaVuSans-Oblique-67" transform="translate(0 0.684375)"/>
      <use xlink:href="#DejaVuSans-34" transform="translate(68.126458 38.965625) scale(0.7)"/>
      <use xlink:href="#DejaVuSans-Oblique-43" transform="translate(63.476562 -26.659375) scale(0.7)"/>
     </g>
    </g>
   </g>
  </g>
 </g>
 <defs>
  <clipPath id="pbe6e3a7142">
   <rect x="54" y="51.84" width="334.8" height="332.64"/>
  </clipPath>
 </defs>
</svg>
